<?xml version="1.0" encoding="UTF-8" standalone="no"?>
<!-- Generator: Adobe Illustrator 19.0.0, SVG Export Plug-In . SVG Version: 6.00 Build 0)  -->

<svg
   xmlns:dc="http://purl.org/dc/elements/1.1/"
   xmlns:cc="http://creativecommons.org/ns#"
   xmlns:rdf="http://www.w3.org/1999/02/22-rdf-syntax-ns#"
   xmlns:svg="http://www.w3.org/2000/svg"
   xmlns="http://www.w3.org/2000/svg"
   xmlns:sodipodi="http://sodipodi.sourceforge.net/DTD/sodipodi-0.dtd"
   xmlns:inkscape="http://www.inkscape.org/namespaces/inkscape"
   version="1.1"
   id="Layer_1"
   x="0px"
   y="0px"
   viewBox="0 0 489.164 489.164"
   style="enable-background:new 0 0 489.164 489.164;"
   xml:space="preserve"
   width="512px"
   height="512px"
   sodipodi:docname="music-player.svg"
   inkscape:version="0.92.3 (2405546, 2018-03-11)"><metadata
   id="metadata3827"><rdf:RDF><cc:Work
       rdf:about=""><dc:format>image/svg+xml</dc:format><dc:type
         rdf:resource="http://purl.org/dc/dcmitype/StillImage" /></cc:Work></rdf:RDF></metadata><defs
   id="defs3825" /><sodipodi:namedview
   pagecolor="#ffffff"
   bordercolor="#666666"
   borderopacity="1"
   objecttolerance="10"
   gridtolerance="10"
   guidetolerance="10"
   inkscape:pageopacity="0"
   inkscape:pageshadow="2"
   inkscape:window-width="1920"
   inkscape:window-height="1016"
   id="namedview3823"
   showgrid="false"
   inkscape:zoom="0.579358"
   inkscape:cx="217.79737"
   inkscape:cy="267.83851"
   inkscape:window-x="0"
   inkscape:window-y="27"
   inkscape:window-maximized="1"
   inkscape:current-layer="Layer_1" />
<path
   d="m 159.582,75.459 v 285.32 c -14.274,-10.374 -32.573,-16.616 -52.5,-16.616 -45.491,0 -82.5,32.523 -82.5,72.5 0,39.977 37.009,72.5 82.5,72.5 45.491,0 82.5,-32.523 82.5,-72.5 V 168.942 c 98.2828,2.88793 182.94475,-39.62696 245,-157.497512 V 292.743 c -14.274,-10.374 -32.573,-16.616 -52.5,-16.616 -45.491,0 -82.5,32.523 -82.5,72.5 0,39.977 37.009,72.5 82.5,72.5 45.491,0 82.5,-32.523 82.5,-72.5 V 0 Z"
   id="path3790"
   inkscape:connector-curvature="0"
   style="fill:#bf61b0"
   sodipodi:nodetypes="ccsssscccsssscc" />
<g
   id="g3792">
</g>
<g
   id="g3794">
</g>
<g
   id="g3796">
</g>
<g
   id="g3798">
</g>
<g
   id="g3800">
</g>
<g
   id="g3802">
</g>
<g
   id="g3804">
</g>
<g
   id="g3806">
</g>
<g
   id="g3808">
</g>
<g
   id="g3810">
</g>
<g
   id="g3812">
</g>
<g
   id="g3814">
</g>
<g
   id="g3816">
</g>
<g
   id="g3818">
</g>
<g
   id="g3820">
</g>
</svg>